<svg xmlns="http://www.w3.org/2000/svg" width="30" height="30"><g fill="none" fill-rule="evenodd"><path fill="#F3F6FA" d="M30 14.959c0 8.261-6.716 14.959-15 14.959-8.284 0-15-6.698-15-14.96C0 6.699 6.716 0 15 0c8.284 0 15 6.697 15 14.959"/><path fill="#3CCEA5" d="M15.545 14.727a1.265 1.265 0 00-1.781-.008c-1.062.993-2.1 2.01-3.14 3.02-.302.3-.422.677-.326 1.095.215 1.033 1.453 1.412 2.26.686a68.142 68.142 0 001.885-1.813c.192-.19.31-.229.527-.016.95.946 1.925 1.876 2.907 2.791.216.205.191.323-.024.512-.631.592-1.262 1.199-1.885 1.806-.407.402-.487.899-.272 1.411.216.52.655.765 1.11.788.464.008.783-.094 1.023-.338 1.054-1.002 2.108-1.995 3.139-3.02.495-.497.495-1.214-.008-1.703a477.13 477.13 0 00-5.415-5.211"/><path d="M24.585 16.311c-.343-.33-.678-.686-1.046-1-.248-.214-.303-.364-.088-.67.759-1.097 1.11-2.343 1.126-3.675 0-.567-.08-1.12-.2-1.663-1.35-5.18-7.97-7.065-11.955-3.39-1.23 1.135-2.42 2.31-3.626 3.468-1.126 1.089-2.26 2.169-3.378 3.257-.391.378-.52.835-.335 1.356.183.52.583.788 1.126.86.47.054.862-.143 1.19-.474 2.212-2.129 4.432-4.257 6.636-6.386 1.11-1.08 2.42-1.514 3.961-1.356 2.38.26 4.185 2.523 3.858 4.833a4.387 4.387 0 01-1.358 2.617c-.567.552-.63 1.285-.12 1.806.775.804 1.59 1.584 2.42 2.333.528.473 1.358.402 1.845-.102.495-.529.48-1.27-.056-1.814" fill="#3CCEA5"/></g></svg>